<?xml version="1.0" encoding="iso-8859-1"?>
<!-- Generator: Adobe Illustrator 19.0.0, SVG Export Plug-In . SVG Version: 6.00 Build 0)  -->
<svg version="1.1" id="Capa_1" xmlns="http://www.w3.org/2000/svg" xmlns:xlink="http://www.w3.org/1999/xlink" x="0px" y="0px"
	 viewBox="0 0 512 512" style="enable-background:new 0 0 512 512;" xml:space="preserve">
<g>
	<circle style="fill:#A4C2F7;" cx="251.661" cy="251.661" r="242.983"/>
	<circle style="fill:#E3E7F2;" cx="251.661" cy="251.661" r="208.271"/>
	<path style="fill:#ECECEC;" d="M69.424,251.661c0.011-109.959,85.509-200.962,195.254-207.825
		c-4.309-0.266-8.641-0.446-13.017-0.446c-115.025,0-208.271,93.246-208.271,208.271s93.246,208.271,208.271,208.271
		c4.376,0,8.708-0.18,13.017-0.446C154.933,452.623,69.435,361.62,69.424,251.661z"/>
	<g>
		<circle style="fill:#A4C2F7;" cx="251.661" cy="147.525" r="52.068"/>
		<circle style="fill:#A4C2F7;" cx="251.661" cy="355.797" r="52.068"/>
		<circle style="fill:#A4C2F7;" cx="355.797" cy="251.661" r="52.068"/>
		<circle style="fill:#A4C2F7;" cx="147.525" cy="251.661" r="52.068"/>
	</g>
	<g>
		<path style="fill:#7FACFA;" d="M251.661,147.525c-17.621-0.017-34.954,4.46-50.363,13.008
			c5.906,22.988,26.628,39.059,50.363,39.059c23.735,0,44.457-16.071,50.363-39.059
			C286.615,151.986,269.282,147.509,251.661,147.525L251.661,147.525z"/>
		<path style="fill:#7FACFA;" d="M251.661,355.797c17.621,0.017,34.954-4.46,50.363-13.008
			c-5.906-22.988-26.628-39.059-50.363-39.059c-23.734,0-44.457,16.072-50.363,39.059
			C216.707,351.336,234.04,355.813,251.661,355.797z"/>
		<path style="fill:#7FACFA;" d="M355.797,251.661c0.017-17.621-4.461-34.954-13.01-50.362
			c-22.987,5.907-39.057,26.629-39.057,50.362s16.07,44.456,39.057,50.362C351.336,286.615,355.813,269.282,355.797,251.661
			L355.797,251.661z"/>
		<path style="fill:#7FACFA;" d="M160.535,201.299c-17.346,31.334-17.346,69.39,0,100.725c22.987-5.907,39.057-26.629,39.057-50.362
			S183.522,207.205,160.535,201.299L160.535,201.299z"/>
	</g>
	<g>
		<path style="fill:#428DFF;" d="M251.661,503.322C112.672,503.322,0,390.65,0,251.661S112.672,0,251.661,0
			s251.661,112.672,251.661,251.661C503.162,390.583,390.583,503.162,251.661,503.322z M251.661,17.356
			c-129.403,0-234.305,104.902-234.305,234.305s104.902,234.305,234.305,234.305s234.305-104.902,234.305-234.305
			C485.819,122.319,381.003,17.503,251.661,17.356z"/>
		<path style="fill:#428DFF;" d="M503.322,512c-47.904-0.056-86.723-38.876-86.78-86.78c0-4.793,3.885-8.678,8.678-8.678
			s8.678,3.885,8.678,8.678c0.044,38.323,31.1,69.38,69.424,69.424c4.793,0,8.678,3.885,8.678,8.678
			C512,508.115,508.115,512,503.322,512L503.322,512z"/>
		<path style="fill:#428DFF;" d="M251.661,468.61c-119.818,0-216.949-97.131-216.949-216.949S131.843,34.712,251.661,34.712
			S468.61,131.843,468.61,251.661C468.475,371.423,371.423,468.475,251.661,468.61z M251.661,52.068
			c-110.232,0-199.593,89.361-199.593,199.593s89.361,199.593,199.593,199.593s199.593-89.361,199.593-199.593
			C451.132,141.479,361.843,52.19,251.661,52.068z"/>
		<path style="fill:#428DFF;" d="M251.661,208.271c-33.549,0-60.746-27.197-60.746-60.746s27.197-60.746,60.746-60.746
			s60.746,27.197,60.746,60.746C312.366,181.058,285.193,208.231,251.661,208.271L251.661,208.271z M251.661,104.136
			c-23.964,0-43.39,19.426-43.39,43.39s19.426,43.39,43.39,43.39s43.39-19.426,43.39-43.39
			C295.023,123.574,275.613,104.164,251.661,104.136L251.661,104.136z"/>
		<path style="fill:#428DFF;" d="M251.661,416.542c-33.549,0-60.746-27.197-60.746-60.746s27.197-60.746,60.746-60.746
			s60.746,27.197,60.746,60.746C312.366,389.329,285.193,416.502,251.661,416.542z M251.661,312.407
			c-23.964,0-43.39,19.426-43.39,43.39c0,23.964,19.426,43.39,43.39,43.39s43.39-19.426,43.39-43.39
			C295.023,331.845,275.613,312.435,251.661,312.407L251.661,312.407z"/>
		<path style="fill:#428DFF;" d="M355.797,312.407c-33.549,0-60.746-27.197-60.746-60.746s27.197-60.746,60.746-60.746
			s60.746,27.197,60.746,60.746C416.502,285.193,389.329,312.366,355.797,312.407L355.797,312.407z M355.797,208.271
			c-23.964,0-43.39,19.426-43.39,43.39s19.426,43.39,43.39,43.39c23.964,0,43.39-19.426,43.39-43.39
			C399.158,227.709,379.749,208.299,355.797,208.271L355.797,208.271z"/>
		<path style="fill:#428DFF;" d="M147.525,312.407c-33.549,0-60.746-27.197-60.746-60.746s27.197-60.746,60.746-60.746
			s60.746,27.197,60.746,60.746C208.231,285.193,181.058,312.366,147.525,312.407L147.525,312.407z M147.525,208.271
			c-23.964,0-43.39,19.426-43.39,43.39s19.426,43.39,43.39,43.39s43.39-19.426,43.39-43.39
			C190.887,227.709,171.477,208.299,147.525,208.271L147.525,208.271z"/>
		<path style="fill:#428DFF;" d="M251.661,208.271c-27.691-0.006-51.868-18.751-58.771-45.568c-0.983-3.832,0.744-7.844,4.203-9.763
			c34.042-18.441,75.094-18.441,109.136,0c3.459,1.919,5.186,5.931,4.203,9.763C303.529,189.52,279.352,208.266,251.661,208.271
			L251.661,208.271z M211.941,164.873c6.876,15.814,22.477,26.042,39.72,26.042s32.845-10.229,39.72-26.042
			C266.122,153.5,237.2,153.5,211.941,164.873L211.941,164.873z"/>
		<path style="fill:#428DFF;" d="M251.661,364.475c-19.088-0.009-37.863-4.858-54.568-14.093c-3.459-1.919-5.186-5.931-4.203-9.763
			c6.898-26.82,31.078-45.568,58.771-45.568c27.693,0,51.873,18.748,58.771,45.568c0.983,3.832-0.744,7.844-4.203,9.763
			C289.524,359.617,270.749,364.466,251.661,364.475z M211.941,338.449c25.259,11.373,54.182,11.373,79.441,0
			c-6.876-15.814-22.477-26.042-39.72-26.042S218.816,322.636,211.941,338.449L211.941,338.449z"/>
		<path style="fill:#428DFF;" d="M342.788,310.703c-0.732,0.002-1.461-0.089-2.169-0.271c-26.82-6.898-45.568-31.078-45.568-58.771
			c0-27.693,18.748-51.873,45.568-58.771c3.832-0.984,7.844,0.744,9.763,4.203c18.791,33.952,18.791,75.184,0,109.136
			C348.85,308.988,345.944,310.701,342.788,310.703L342.788,310.703z M338.449,211.941c-15.814,6.876-26.042,22.477-26.042,39.72
			s10.229,32.845,26.042,39.72C350.009,266.163,350.009,237.159,338.449,211.941L338.449,211.941z"/>
		<path style="fill:#428DFF;" d="M160.534,310.703c-3.157,0.001-6.065-1.713-7.593-4.475c-18.791-33.952-18.791-75.184,0-109.136
			c1.922-3.456,5.931-5.183,9.763-4.203c26.82,6.898,45.568,31.078,45.568,58.771c0,27.693-18.748,51.873-45.568,58.771
			C161.994,310.614,161.265,310.705,160.534,310.703z M164.873,211.941c-11.559,25.219-11.559,54.222,0,79.441
			c15.814-6.876,26.042-22.477,26.042-39.72S180.686,218.816,164.873,211.941L164.873,211.941z"/>
	</g>
</g>
<g>
</g>
<g>
</g>
<g>
</g>
<g>
</g>
<g>
</g>
<g>
</g>
<g>
</g>
<g>
</g>
<g>
</g>
<g>
</g>
<g>
</g>
<g>
</g>
<g>
</g>
<g>
</g>
<g>
</g>
</svg>
